<?xml version="1.0" standalone="no"?>
<!DOCTYPE svg PUBLIC "-//W3C//DTD SVG 20010904//EN"
 "http://www.w3.org/TR/2001/REC-SVG-20010904/DTD/svg10.dtd">
<svg version="1.0" xmlns="http://www.w3.org/2000/svg"
 width="43.000000pt" height="49.000000pt" viewBox="0 0 43.000000 49.000000"
 preserveAspectRatio="xMidYMid meet">
<metadata>
Created by potrace 1.16, written by Peter Selinger 2001-2019
</metadata>
<g transform="translate(0.000000,49.000000) scale(0.100000,-0.100000)"
stroke="none">
<path d="M37 473 c-4 -3 -7 -39 -7 -78 0 -39 -5 -97 -11 -129 -7 -41 -7 -66 1
-91 12 -36 84 -108 120 -120 12 -4 31 -16 41 -26 24 -24 44 -24 67 -1 10 10
32 24 50 31 42 18 99 77 113 118 8 24 8 47 0 84 -6 27 -11 85 -11 129 0 43 -4
82 -10 85 -5 3 -29 1 -52 -6 -58 -16 -183 -17 -237 -2 -51 15 -55 15 -64 6z
m240 -73 c52 -23 80 -66 88 -134 12 -96 -28 -160 -108 -173 -37 -6 -37 -6 -37
30 0 26 6 39 20 47 27 14 25 28 -5 42 -48 22 -97 -21 -60 -52 15 -13 21 -70 8
-70 -24 1 -93 56 -116 90 -14 22 -14 32 -3 85 16 77 40 113 91 136 51 23 70
23 122 -1z"/>
</g>
</svg>
